<?xml version="1.0" encoding="UTF-8" standalone="no"?>
<!DOCTYPE svg PUBLIC "-//W3C//DTD SVG 1.1//EN"
 "http://www.w3.org/Graphics/SVG/1.1/DTD/svg11.dtd">
<!-- Generated by graphviz version 2.40.1 (20161225.0304)
 -->
<!-- Title: G Pages: 1 -->
<svg width="543pt" height="140pt"
 viewBox="0.00 0.00 543.44 140.00" xmlns="http://www.w3.org/2000/svg" xmlns:xlink="http://www.w3.org/1999/xlink">
<g id="graph0" class="graph" transform="scale(1 1) rotate(0) translate(4 136)">
<title>G</title>
<polygon fill="#ffffff" stroke="transparent" points="-4,4 -4,-136 539.4426,-136 539.4426,4 -4,4"/>
<g id="clust1" class="cluster">
<title>cluster_0</title>
<polygon fill="#d3d3d3" stroke="#d3d3d3" points="113.7627,-72 113.7627,-124 431.1352,-124 431.1352,-72 113.7627,-72"/>
</g>
<g id="clust2" class="cluster">
<title>cluster_1</title>
<polygon fill="#d3d3d3" stroke="#d3d3d3" points="111.0327,-8 111.0327,-60 433.8652,-60 433.8652,-8 111.0327,-8"/>
</g>
<!-- Query -->
<g id="node1" class="node">
<title>Query</title>
<polygon fill="none" stroke="#000000" points="41.5163,-125 -.0164,-100 41.5163,-75 83.049,-100 41.5163,-125"/>
<polyline fill="none" stroke="#000000" points="10.2648,-106.1886 10.2648,-93.8114 "/>
<polyline fill="none" stroke="#000000" points="31.2352,-81.1886 51.7975,-81.1886 "/>
<polyline fill="none" stroke="#000000" points="72.7679,-93.8114 72.7679,-106.1886 "/>
<polyline fill="none" stroke="#000000" points="51.7975,-118.8114 31.2352,-118.8114 "/>
<text text-anchor="middle" x="41.5163" y="-95.8" font-family="Times,serif" font-size="14.00" fill="#000000">Query</text>
</g>
<!-- r2rolog -->
<g id="node3" class="node">
<title>r2rolog</title>
<polygon fill="#ffffff" stroke="#ffffff" points="200.1212,-116 121.9757,-116 121.9757,-80 200.1212,-80 200.1212,-116"/>
<text text-anchor="middle" x="161.0485" y="-93.8" font-family="Times,serif" font-size="14.00" fill="#000000">preproc(...)</text>
</g>
<!-- Query&#45;&gt;r2rolog -->
<g id="edge5" class="edge">
<title>Query&#45;&gt;r2rolog</title>
<path fill="none" stroke="#000000" d="M81.9845,-99.3229C91.5353,-99.1631 101.8227,-98.991 111.7164,-98.8254"/>
<polygon fill="#000000" stroke="#000000" points="111.8968,-102.323 121.8368,-98.6561 111.7796,-95.324 111.8968,-102.323"/>
</g>
<!-- Result -->
<g id="node2" class="node">
<title>Result</title>
<polygon fill="none" stroke="#000000" points="67.2938,-56.7775 15.7389,-56.7775 15.7389,-5.2225 67.2938,-5.2225 67.2938,-56.7775"/>
<polyline fill="none" stroke="#000000" points="27.7389,-56.7775 15.7389,-44.7775 "/>
<polyline fill="none" stroke="#000000" points="15.7389,-17.2225 27.7389,-5.2225 "/>
<polyline fill="none" stroke="#000000" points="55.2938,-5.2225 67.2938,-17.2225 "/>
<polyline fill="none" stroke="#000000" points="67.2938,-44.7775 55.2938,-56.7775 "/>
<text text-anchor="middle" x="41.5163" y="-26.8" font-family="Times,serif" font-size="14.00" fill="#000000">Result</text>
</g>
<!-- rolog2r -->
<g id="node6" class="node">
<title>rolog2r</title>
<polygon fill="#ffffff" stroke="#ffffff" points="203.0801,-52 119.0169,-52 119.0169,-16 203.0801,-16 203.0801,-52"/>
<text text-anchor="middle" x="161.0485" y="-29.8" font-family="Times,serif" font-size="14.00" fill="#000000">postproc(...)</text>
</g>
<!-- Result&#45;&gt;rolog2r -->
<g id="edge8" class="edge">
<title>Result&#45;&gt;rolog2r</title>
<path fill="none" stroke="#000000" d="M77.8161,-31.911C90.7172,-32.2348 105.3525,-32.6022 118.714,-32.9375"/>
<polygon fill="#000000" stroke="#000000" points="77.5377,-28.4031 67.453,-31.651 77.362,-35.4008 77.5377,-28.4031"/>
</g>
<!-- forth -->
<g id="node4" class="node">
<title>forth</title>
<ellipse fill="#ffffff" stroke="#ffffff" cx="276.9143" cy="-98" rx="37.7006" ry="18"/>
<text text-anchor="middle" x="276.9143" y="-93.8" font-family="Times,serif" font-size="14.00" fill="#000000">(rolog)</text>
</g>
<!-- r2rolog&#45;&gt;forth -->
<g id="edge1" class="edge">
<title>r2rolog&#45;&gt;forth</title>
<path fill="none" stroke="#000000" d="M200.2754,-98C209.4358,-98 219.2952,-98 228.7923,-98"/>
<polygon fill="#000000" stroke="#000000" points="228.9053,-101.5001 238.9053,-98 228.9053,-94.5001 228.9053,-101.5001"/>
</g>
<!-- rolog_pl -->
<g id="node5" class="node">
<title>rolog_pl</title>
<polygon fill="#ffffff" stroke="#ffffff" points="422.9567,-116 353.6728,-116 353.6728,-80 422.9567,-80 422.9567,-116"/>
<text text-anchor="middle" x="388.3147" y="-93.8" font-family="Times,serif" font-size="14.00" fill="#000000">preproc/2</text>
</g>
<!-- forth&#45;&gt;rolog_pl -->
<g id="edge2" class="edge">
<title>forth&#45;&gt;rolog_pl</title>
<path fill="none" stroke="#000000" d="M314.9404,-98C324.1055,-98 333.9828,-98 343.4286,-98"/>
<polygon fill="#000000" stroke="#000000" points="343.4549,-101.5001 353.4549,-98 343.4548,-94.5001 343.4549,-101.5001"/>
</g>
<!-- Prolog -->
<g id="node9" class="node">
<title>Prolog</title>
<ellipse fill="none" stroke="#000000" cx="498.6539" cy="-66" rx="36.5786" ry="36.5786"/>
<polyline fill="none" stroke="#000000" points="522.986,-93.5915 474.3219,-93.5915 "/>
<polyline fill="none" stroke="#000000" points="522.986,-38.4085 474.3219,-38.4085 "/>
<text text-anchor="middle" x="498.6539" y="-61.8" font-family="Times,serif" font-size="14.00" fill="#000000">Prolog</text>
</g>
<!-- rolog_pl&#45;&gt;Prolog -->
<g id="edge6" class="edge">
<title>rolog_pl:e&#45;&gt;Prolog</title>
<path fill="none" stroke="#000000" d="M423.3147,-98C435.0752,-98 447.1053,-94.6558 458.0017,-90.1297"/>
<polygon fill="#000000" stroke="#000000" points="459.6104,-93.2427 467.2502,-85.9022 456.7003,-86.8763 459.6104,-93.2427"/>
</g>
<!-- back -->
<g id="node7" class="node">
<title>back</title>
<ellipse fill="#ffffff" stroke="#ffffff" cx="276.9143" cy="-34" rx="37.7006" ry="18"/>
<text text-anchor="middle" x="276.9143" y="-29.8" font-family="Times,serif" font-size="14.00" fill="#000000">(rolog)</text>
</g>
<!-- rolog2r&#45;&gt;back -->
<g id="edge3" class="edge">
<title>rolog2r&#45;&gt;back</title>
<path fill="none" stroke="#000000" d="M213.4869,-34C222.0216,-34 230.7168,-34 238.8225,-34"/>
<polygon fill="#000000" stroke="#000000" points="213.2065,-30.5001 203.2065,-34 213.2064,-37.5001 213.2065,-30.5001"/>
</g>
<!-- pl_rolog -->
<g id="node8" class="node">
<title>pl_rolog</title>
<polygon fill="#ffffff" stroke="#ffffff" points="425.9158,-52 350.7137,-52 350.7137,-16 425.9158,-16 425.9158,-52"/>
<text text-anchor="middle" x="388.3147" y="-29.8" font-family="Times,serif" font-size="14.00" fill="#000000">postproc/2</text>
</g>
<!-- back&#45;&gt;pl_rolog -->
<g id="edge4" class="edge">
<title>back&#45;&gt;pl_rolog</title>
<path fill="none" stroke="#000000" d="M325.114,-34C333.595,-34 342.3123,-34 350.46,-34"/>
<polygon fill="#000000" stroke="#000000" points="324.9405,-30.5001 314.9404,-34 324.9404,-37.5001 324.9405,-30.5001"/>
</g>
<!-- pl_rolog&#45;&gt;Prolog -->
<g id="edge7" class="edge">
<title>pl_rolog:e&#45;&gt;Prolog</title>
<path fill="none" stroke="#000000" d="M436.4748,-34.8303C447.5233,-36.5766 458.4,-40.8717 467.8907,-45.7339"/>
<polygon fill="#000000" stroke="#000000" points="436.5666,-31.3262 426.3147,-34 435.9964,-38.303 436.5666,-31.3262"/>
</g>
</g>
</svg>

